<svg xmlns="http://www.w3.org/2000/svg" viewBox="0 0 512 512">
  <defs>
    <linearGradient id="gradient" x1="0%" y1="0%" x2="100%" y2="100%">
      <stop offset="0%" stop-color="#4461F2" />
      <stop offset="100%" stop-color="#A855F7" />
    </linearGradient>
  </defs>
  <rect width="512" height="512" rx="96" ry="96" fill="url(#gradient)" />
  <g fill="#ffffff" opacity="0.9">
    <path d="M256 128c-70.7 0-128 57.3-128 128s57.3 128 128 128 128-57.3 128-128-57.3-128-128-128zm0 224a96 96 0 1 1 96-96 96 96 0 0 1-96 96z" />
    <path d="M256 192a64 64 0 0 0-64 64c0 13.3 10.7 24 24 24s24-10.7 24-24a16 16 0 0 1 32 0 64 64 0 0 0 64 64c13.3 0 24-10.7 24-24s-10.7-24-24-24a16 16 0 0 1-16-16 64 64 0 0 0-64-64z" />
  </g>
</svg>
